<svg xmlns="http://www.w3.org/2000/svg" xmlns:xlink="http://www.w3.org/1999/xlink" viewBox="0 0 285.26 57.53"><defs><style>.cls-1{fill:#828282;}.cls-2{clip-path:url(#clip-path);}</style><clipPath id="clip-path"><rect class="cls-1" x="263.73" y="46.05" width="1.59" height="7.9"/></clipPath></defs><g id="Layer_2" data-name="Layer 2"><g id="Layer_4" data-name="Layer 4"><path class="cls-1" d="M98.85,48.91h.62l0,.92h0l0,0c.07-.12.14-.22.21-.32a1.68,1.68,0,0,1,.29-.32,1.54,1.54,0,0,1,.46-.26,1.74,1.74,0,0,1,.63-.1A2.1,2.1,0,0,1,102,49a1.73,1.73,0,0,1,.65.55,3.18,3.18,0,0,1,.49,1.9,3.14,3.14,0,0,1-.54,1.9,1.8,1.8,0,0,1-1.54.74,1.75,1.75,0,0,1-1-.25,1.72,1.72,0,0,1-.61-.73h0V56h-.62Zm3.54,1.75a2.07,2.07,0,0,0-.25-.67,1.44,1.44,0,0,0-.46-.49,1.35,1.35,0,0,0-.72-.18,1.18,1.18,0,0,0-.68.19,1.41,1.41,0,0,0-.47.5,2.91,2.91,0,0,0-.26.68,3.72,3.72,0,0,0-.08.74,3.63,3.63,0,0,0,.08.73,2.61,2.61,0,0,0,.27.69,1.35,1.35,0,0,0,.46.49,1.18,1.18,0,0,0,.68.19,1.35,1.35,0,0,0,.72-.18,1.28,1.28,0,0,0,.46-.49,2.1,2.1,0,0,0,.25-.66,4.79,4.79,0,0,0,.07-.77,4.69,4.69,0,0,0-.07-.77"/><path class="cls-1" d="M107.12,50.43a2.55,2.55,0,0,1,.44-.85,2,2,0,0,1,.74-.58,2.37,2.37,0,0,1,1-.21,2.46,2.46,0,0,1,1,.21,2,2,0,0,1,.73.58,2.39,2.39,0,0,1,.43.84,3.38,3.38,0,0,1,.14,1,3.31,3.31,0,0,1-.14,1,2.57,2.57,0,0,1-.43.84,1.9,1.9,0,0,1-.73.58,2.59,2.59,0,0,1-2.09,0,2.1,2.1,0,0,1-.74-.57,2.72,2.72,0,0,1-.43-.85,3.64,3.64,0,0,1,0-2m1,2.5a1.45,1.45,0,0,0,1.23.6,1.43,1.43,0,0,0,1.23-.6,2.41,2.41,0,0,0,.44-1.5,2.44,2.44,0,0,0-.44-1.51,1.43,1.43,0,0,0-1.23-.6,1.45,1.45,0,0,0-1.23.6,2.5,2.5,0,0,0-.44,1.51,2.47,2.47,0,0,0,.44,1.5"/><path class="cls-1" d="M115.83,50c0-.31,0-.53,0-.66s0-.29,0-.46h.62v1h0a2,2,0,0,1,.52-.78,1.08,1.08,0,0,1,.77-.31h.22a1,1,0,0,1,.22.05v.65a1.56,1.56,0,0,0-.46-.06,1,1,0,0,0-.59.18,1.23,1.23,0,0,0-.4.47,2.52,2.52,0,0,0-.2.64,4.32,4.32,0,0,0-.06.73V54h-.62Z"/><path class="cls-1" d="M131.72,52.76c0,.52,0,.92,0,1.19h-.6v-.9h0a4.07,4.07,0,0,1-.21.37,1.5,1.5,0,0,1-.3.32,1.48,1.48,0,0,1-.47.24,2.08,2.08,0,0,1-.65.09,1.55,1.55,0,0,1-1.3-.53,2.19,2.19,0,0,1-.42-1.41V48.91h.62V52a2,2,0,0,0,.29,1.15,1,1,0,0,0,.91.41,1.42,1.42,0,0,0,.7-.16,1.35,1.35,0,0,0,.46-.43,1.81,1.81,0,0,0,.25-.59,2.84,2.84,0,0,0,.08-.66V48.91h.62Z"/><path class="cls-1" d="M136.25,50.09a11.79,11.79,0,0,0,0-1.18h.6v.9h0a2.71,2.71,0,0,1,.22-.38,1.46,1.46,0,0,1,.3-.31,1.38,1.38,0,0,1,.47-.24,2.06,2.06,0,0,1,.64-.09,1.57,1.57,0,0,1,1.31.52,2.26,2.26,0,0,1,.41,1.42V54h-.62V50.88a2,2,0,0,0-.29-1.15,1,1,0,0,0-.91-.41,1.46,1.46,0,0,0-.69.16,1.3,1.3,0,0,0-.47.43,2.06,2.06,0,0,0-.25.59,3,3,0,0,0-.08.66V54h-.62Z"/><path class="cls-1" d="M147.6,53.14h0a1.47,1.47,0,0,1-.65.68,2,2,0,0,1-1,.25,2.1,2.1,0,0,1-.84-.15,1.46,1.46,0,0,1-.51-.37,1.2,1.2,0,0,1-.24-.46,1.5,1.5,0,0,1-.07-.45,1.62,1.62,0,0,1,.28-1,1.66,1.66,0,0,1,.74-.53,4.24,4.24,0,0,1,.95-.22c.34,0,.71-.05,1.14-.05h.11v-.25a1.49,1.49,0,0,0-.26-1,1.1,1.1,0,0,0-.88-.32,2.64,2.64,0,0,0-1.48.42v-.61a3.78,3.78,0,0,1,.72-.24,3.24,3.24,0,0,1,.76-.1,1.81,1.81,0,0,1,1.35.44,2.06,2.06,0,0,1,.42,1.44v2.22c0,.26,0,.46,0,.6a3.73,3.73,0,0,0,0,.46h-.62Zm-.06-1.73h-.17a7.78,7.78,0,0,0-.88,0,2.86,2.86,0,0,0-.74.16,1.19,1.19,0,0,0-.54.37,1,1,0,0,0-.21.64.81.81,0,0,0,.3.69,1.17,1.17,0,0,0,.75.22,1.57,1.57,0,0,0,.83-.19,1.21,1.21,0,0,0,.45-.48,1.59,1.59,0,0,0,.18-.56,5.54,5.54,0,0,0,0-.59Z"/><polygon class="cls-1" points="157.07 46.05 161.74 46.05 161.74 47.29 158.66 47.29 158.66 49.24 161.48 49.24 161.48 50.48 158.66 50.48 158.66 52.7 161.76 52.7 161.76 53.95 157.07 53.95 157.07 46.05"/><path class="cls-1" d="M168.74,47.5a4,4,0,0,0-1.61-.34,1.09,1.09,0,0,0-1.24,1.09c0,1.37,3.46.8,3.46,3.45,0,1.73-1.37,2.38-3,2.38a7.07,7.07,0,0,1-2-.3l.15-1.43a3.73,3.73,0,0,0,1.79.49c.6,0,1.4-.31,1.4-1,0-1.51-3.46-.88-3.46-3.5,0-1.76,1.37-2.41,2.76-2.41a6,6,0,0,1,1.89.28Z"/><path class="cls-1" d="M171.78,46.05h2c1.72,0,3.29.5,3.29,2.39S175.73,51,174,51h-.67v3h-1.59Zm1.59,3.65h.55c.8,0,1.51-.26,1.51-1.17s-.69-1.24-1.51-1.24h-.55Z"/><polygon class="cls-1" points="179.34 46.05 184.01 46.05 184.01 47.29 180.93 47.29 180.93 49.24 183.75 49.24 183.75 50.48 180.93 50.48 180.93 52.7 184.03 52.7 184.03 53.95 179.34 53.95 179.34 46.05"/><path class="cls-1" d="M186.63,46.05h1.71c1.7,0,3.72-.06,3.72,2.14A1.81,1.81,0,0,1,190.43,50v0c.44,0,.68.47.84.82L192.54,54h-1.77l-1-2.47c-.22-.59-.43-.82-1.09-.82h-.51V54h-1.59Zm1.59,3.37h.52c.78,0,1.67-.11,1.67-1.1s-.88-1-1.67-1h-.52Z"/><path class="cls-1" d="M197.08,46.05h1.79L202,54h-1.76l-.68-1.81h-3.2L195.64,54H194Zm.87,1.58h0l-1.15,3.26h2.31Z"/><polygon class="cls-1" points="204.04 46.05 205.98 46.05 208.99 51.95 209.02 51.95 209.02 46.05 210.53 46.05 210.53 53.95 208.6 53.95 205.58 48.04 205.55 48.04 205.55 53.95 204.04 53.95 204.04 46.05"/><polygon class="cls-1" points="212.91 52.66 216.62 47.29 213.06 47.29 213.06 46.05 218.31 46.05 218.31 47.34 214.56 52.7 218.38 52.7 218.38 53.95 212.91 53.95 212.91 52.66"/><path class="cls-1" d="M223.1,46.05h1.79L228,54h-1.75l-.68-1.81h-3.2L221.67,54H220Zm.88,1.58h0l-1.14,3.26h2.31Z"/><path class="cls-1" d="M234.42,46.05h2.16c2.42,0,4.56.81,4.56,4s-2.14,4-4.56,4h-2.16ZM236,52.7h.88a2.71,2.71,0,0,0,0-5.41H236Z"/><polygon class="cls-1" points="243.72 46.05 248.39 46.05 248.39 47.29 245.31 47.29 245.31 49.24 248.13 49.24 248.13 50.48 245.31 50.48 245.31 52.7 248.41 52.7 248.41 53.95 243.72 53.95 243.72 46.05"/><path class="cls-1" d="M79.05,43.3a27.61,27.61,0,0,0-2.79,2.37v4.91a3.65,3.65,0,0,1,.58-1.71A15.46,15.46,0,0,1,80.72,45a44.5,44.5,0,0,1,8.77-4.83A60.68,60.68,0,0,1,83.74,49q-2.74,3.41-5.33,3.4a2.11,2.11,0,0,1-1.91-.95,1.64,1.64,0,0,1-.24-.82v4.08a6.55,6.55,0,0,0,.92.27,9.71,9.71,0,0,0,2.12.24h.1A10.39,10.39,0,0,0,85,53.46a20.09,20.09,0,0,0,4.46-3.93V37.59A53.58,53.58,0,0,0,79.05,43.3"/><path class="cls-1" d="M76.5,51.46c-.41-.64-.29-1.5.34-2.59A15.46,15.46,0,0,1,80.72,45a44.5,44.5,0,0,1,8.77-4.83A60.68,60.68,0,0,1,83.74,49q-2.74,3.41-5.33,3.4a2.11,2.11,0,0,1-1.91-.95M113.18,5.4a18.4,18.4,0,0,0-3.09.81,9,9,0,0,0-2.65,1.4,29.31,29.31,0,0,1-3,1.59,13.92,13.92,0,0,1-3,1,15,15,0,0,1-3.47.31A28.43,28.43,0,0,1,93.63,10a2,2,0,0,0-1.93.71,5.82,5.82,0,0,0-1.26,2.11,4.06,4.06,0,0,0-.2,2.17,1.08,1.08,0,0,0,1.15,1,22.84,22.84,0,0,0,7.14-1,26.42,26.42,0,0,0,6-2.89c-.86,1.64-1.86,3.57-3,5.82s-2.31,4.59-3.53,7q-.69,1.1-1.5,2.52l-1.7,3c-.59,1-1.19,2.12-1.8,3.23s-1.19,2.16-1.73,3.16A58.1,58.1,0,0,0,79.05,43.3c-2.7,2-4.42,3.87-5.16,5.51A5.52,5.52,0,0,0,73.32,51v.06a3.21,3.21,0,0,0,.57,1.81A5.11,5.11,0,0,0,77.18,55a9.71,9.71,0,0,0,2.12.24h.1A10.39,10.39,0,0,0,85,53.46a23,23,0,0,0,6.77-7Q93.36,44,94.86,41.5c1-1.66,2-3.23,2.85-4.73,2.32-.81,4.81-1.69,7.48-2.61s5.2-1.81,7.58-2.62,4.43-1.54,6.15-2.18a22.65,22.65,0,0,0,3.13-1.29,1.59,1.59,0,0,0,.78-.81,1.12,1.12,0,0,0,0-.82c-.09-.23-.32-.36-.68-.41a2.55,2.55,0,0,0-1.36.34,26.81,26.81,0,0,1-3.13,1.22q-2.17.75-5.06,1.7t-6.29,2q-3.41,1.1-6.8,2.32l1.22-2.32q2.45-3.93,5-8t4.76-7.62q2.18-3.5,3.71-6.05c1-1.7,1.64-2.8,1.87-3.29s.09-.82-.55-1a4.88,4.88,0,0,0-1-.09,8.52,8.52,0,0,0-1.43.13"/><path class="cls-1" d="M126.31,24.67a14.88,14.88,0,0,0-3,.63,23.82,23.82,0,0,0-2.9,1.1c-.93.43-1.73.8-2.41,1.14a1.88,1.88,0,0,0-.62.6v0l0,.08a.7.7,0,0,0,0,.66.92.92,0,0,0,.6.41,1.48,1.48,0,0,0,1-.12l2-.86,1.42-.6c.13,0,.06.18-.22.66s-.61,1.11-1,1.87-.8,1.6-1.2,2.53a12.22,12.22,0,0,0-.82,2.62,3.72,3.72,0,0,0,.16,2.15,1.71,1.71,0,0,0,.79.85h0a3.31,3.31,0,0,0,.95.31,8.77,8.77,0,0,0,4.71-.41A21.05,21.05,0,0,0,130,36.26a32.76,32.76,0,0,0,4.3-3.22c-.42,1.14-.76,2.07-1,2.78A4.84,4.84,0,0,0,133,37.5a.93.93,0,0,0,.54.85,4.11,4.11,0,0,0,1.71.25,12.45,12.45,0,0,0,3.31-.63c1.42-.42,3-1,4.65-1.61s3.4-1.37,5.15-2.15L153.18,32q2.2-1,3.69-1.74l1.74-.85a3.18,3.18,0,0,0,1.11-1,1,1,0,0,0,.13-.86.66.66,0,0,0-.27-.28l0,0a1.36,1.36,0,0,0-.4-.11,2.49,2.49,0,0,0-1.36.38c-.29.13-.87.41-1.74.85s-1.89,1-3.09,1.55-2.51,1.22-3.92,1.87-2.78,1.26-4.11,1.83-2.56,1.07-3.7,1.49a18.24,18.24,0,0,1-2.72.82c-.17,0-.16-.18,0-.67s.47-1.08.83-1.8.75-1.5,1.2-2.37.82-1.68,1.14-2.46a20.2,20.2,0,0,0,.69-2c.15-.55.09-.87-.16-.95-.84-.34-1.86-.05-3.06.85s-2.52,2-4,3.32-2.95,2.58-4.55,3.82a11.76,11.76,0,0,1-4.87,2.37c-.55.13-.78,0-.7-.5a8.35,8.35,0,0,1,.7-1.87c.38-.77.83-1.64,1.36-2.59s1-1.86,1.39-2.75a11.06,11.06,0,0,0,.79-2.27q.18-.94-.51-1.2a5,5,0,0,0-1.7-.27,6,6,0,0,0-.83.05"/><path class="cls-1" d="M173.44,24.63a10.89,10.89,0,0,0-2.5.51,27.31,27.31,0,0,0-2.78,1.3c-1.1.56-2.23,1.21-3.38,1.92s-2.29,1.48-3.39,2.28a23.7,23.7,0,0,0-2.71,2.27,11.36,11.36,0,0,1,1.48-2.18,4.08,4.08,0,0,0,1-1.86,1.12,1.12,0,0,0-.28-1,3.17,3.17,0,0,0-1.05-.82,3.67,3.67,0,0,0-1.36-.38,1.76,1.76,0,0,0-1.23.31,6.67,6.67,0,0,0-1.52,1.8c-.5.83-1,1.68-1.39,2.56s-.78,1.73-1.07,2.53-.51,1.42-.63,1.84a1,1,0,0,0,.34,1.07,3.88,3.88,0,0,0,1.3.79,3.59,3.59,0,0,0,1.55.22,1.4,1.4,0,0,0,1.17-.69,10.68,10.68,0,0,1,2.37-2.53,41.54,41.54,0,0,1,3.73-2.78q2-1.34,3.76-2.37a12.9,12.9,0,0,1,2.46-1.24c-.5.85-1,1.67-1.45,2.47s-.83,1.5-1.23,2.34a20.61,20.61,0,0,0-1,2.4c-.51,1.6-.49,2.75.06,3.44a2.29,2.29,0,0,0,1.76.7h.06a9.86,9.86,0,0,0,2-.16,27.49,27.49,0,0,0,3.82-1q2.37-.8,5.06-1.83l5.5-2.18q2.81-1.14,5.21-2.22c1.6-.71,3-1.35,4.11-1.89s1.9-.93,2.28-1.14a2.48,2.48,0,0,0,1-1,1.49,1.49,0,0,0,.08-.32v0a.55.55,0,0,0-.15-.41,1.18,1.18,0,0,0-.75-.35,1.53,1.53,0,0,0-1,.26l-1.93.94c-1,.51-2.29,1.1-3.76,1.77s-3.08,1.37-4.81,2.09-3.4,1.38-5,2-3.1,1.12-4.43,1.52a9.15,9.15,0,0,1-3,.53q-.25,0,0-.66a14.7,14.7,0,0,1,.76-1.74q.52-1.06,1.23-2.4c.46-.88.93-1.79,1.39-2.72a5,5,0,0,0,.66-2.27,1.54,1.54,0,0,0-.63-1.3,2.37,2.37,0,0,0-1.15-.35h-.55"/><path class="cls-1" d="M216,4.06a14.29,14.29,0,0,1-1.58,3.48,50,50,0,0,1-3.19,4.74,56.72,56.72,0,0,1-4.36,5.15,9.62,9.62,0,0,1-1.3,0,9.47,9.47,0,0,0-1.29,0L214,19.21h6.13a2.29,2.29,0,0,0,1.33-.32.81.81,0,0,0,0-1.45,2.29,2.29,0,0,0-1.33-.32c-.46,0-1.64,0-3.53.1s-4.11.11-6.64.16a56.2,56.2,0,0,0,4.61-5.88,29.66,29.66,0,0,0,2.94-5.31,11.16,11.16,0,0,0,.83-3l-2.7-.47c.44.09.56.53.35,1.34m-6.32-2.28a29.8,29.8,0,0,0-6.79,8.13c-.72,1.13-1.46,2.36-2.21,3.66-.56,1-1.13,2-1.71,3l5.31.93L205.2,16q1.63-2.84,3-5.27a49.09,49.09,0,0,1,2.53-4.21A15.44,15.44,0,0,1,213,3.71a3.6,3.6,0,0,1,2.41-1h.14l-5.8-1-.13.09"/><path class="cls-1" d="M193.63,17.74h-3.29a2.31,2.31,0,0,0-1.26.19.87.87,0,0,0-.47.55h0v0a.78.78,0,0,0,.26.64,1.35,1.35,0,0,0,1,.28l2.49,0c1.37,0,3,0,5,0-.36.63-.72,1.27-1.06,1.9l5.35.94,1.71-2.91h1.64c-.54.51-1.09,1-1.64,1.49s-1.12,1-1.71,1.42l2.77.49c1.14-.94,2.23-1.92,3.26-2.92l-11.73-2.07h-2.26"/><path class="cls-1" d="M203.3,19.32h1.64c-.54.51-1.09,1-1.64,1.49s-1.12,1-1.71,1.42ZM205.2,16q1.63-2.84,3-5.27a49.09,49.09,0,0,1,2.53-4.21A15.44,15.44,0,0,1,213,3.71a3.6,3.6,0,0,1,2.41-1c.59,0,.77.45.53,1.36a14.29,14.29,0,0,1-1.58,3.48,50,50,0,0,1-3.19,4.74,56.72,56.72,0,0,1-4.36,5.15,9.62,9.62,0,0,1-1.3,0,9.47,9.47,0,0,0-1.29,0Zm4.45-14.19a29.8,29.8,0,0,0-6.79,8.13c-.72,1.13-1.46,2.36-2.21,3.66s-1.54,2.68-2.34,4.11q-2.59.06-4.68.06h-3.29a2.31,2.31,0,0,0-1.26.19.83.83,0,0,0-.48.6.78.78,0,0,0,.26.64,1.35,1.35,0,0,0,1,.28l2.49,0c1.37,0,3,0,5,0Q196,21.73,194.8,24l-2.18,4.33a26.69,26.69,0,0,0-1.77,4.24,6.63,6.63,0,0,0-.29,3.47,3.33,3.33,0,0,0,1.9,2.22,9.57,9.57,0,0,0,4.84.44,27.79,27.79,0,0,0,4.89-.95c1.84-.5,3.7-1.1,5.6-1.8s3.76-1.42,5.59-2.18,3.49-1.49,5-2.18,2.71-1.3,3.7-1.8a19.49,19.49,0,0,0,1.74-.95,1.65,1.65,0,0,0,.6-.73.76.76,0,0,0,0-.69.85.85,0,0,0-.6-.38,1.7,1.7,0,0,0-1.14.28c-.33.17-.92.46-1.77.86s-1.84.86-3,1.39-2.42,1.08-3.79,1.67L210,33c-1.35.57-2.64,1.09-3.89,1.55s-2.33.82-3.25,1.07a20.78,20.78,0,0,1-3.67.7,3.29,3.29,0,0,1-2.34-.48,2.21,2.21,0,0,1-.6-2.08,14.15,14.15,0,0,1,1.49-4.21l1.58-3.09a58.13,58.13,0,0,0,8.85-7.21q2.15,0,4.14,0l3.6,0h4.2a2.29,2.29,0,0,0,1.33-.32.81.81,0,0,0,0-1.45,2.29,2.29,0,0,0-1.33-.32c-.46,0-1.64,0-3.53.1s-4.11.11-6.64.16a56.2,56.2,0,0,0,4.61-5.88,29.66,29.66,0,0,0,2.94-5.31,9.12,9.12,0,0,0,.85-4A1.92,1.92,0,0,0,216.7.24a8.5,8.5,0,0,0-2-.24,8.37,8.37,0,0,0-5.07,1.78"/><path class="cls-1" d="M231.68,28.11a4.67,4.67,0,0,0-2,.19,3.5,3.5,0,0,0-1.52.95,1.75,1.75,0,0,0-.5,1.39,2.09,2.09,0,0,0,1,1.45,5.43,5.43,0,0,0,.82.57,3.44,3.44,0,0,0,.95.38,11.14,11.14,0,0,1-3.29,2.72,8.85,8.85,0,0,1-4.42,1.14,3,3,0,0,1-1.37-.28l5.1,2.49A14.54,14.54,0,0,0,231,37.75a16.47,16.47,0,0,0,5-3.57,22.28,22.28,0,0,0,5.21-.63c.55-.14,1.09-.27,1.62-.42l-3-1.45a13.79,13.79,0,0,1-2.39.22,7.09,7.09,0,0,0,.46-1.17l-7-3.43a2.13,2.13,0,0,1,.89.81m-7.17-2.69a12.74,12.74,0,0,0-4.18,2.79,9.06,9.06,0,0,0-2.21,3.6,6.9,6.9,0,0,0-.29,3.11l3.46,1.68a2.29,2.29,0,0,1-1.11-1.25,4.77,4.77,0,0,1,0-3.45A7.38,7.38,0,0,1,223,28.46a9.51,9.51,0,0,1,5.72-1.55,4.74,4.74,0,0,1,2,.37l-4.84-2.36a11.54,11.54,0,0,0-1.4.5"/><path class="cls-1" d="M220.18,35.35a4.77,4.77,0,0,1,0-3.45A7.38,7.38,0,0,1,223,28.46a9.51,9.51,0,0,1,5.72-1.55q2.28,0,3,1.2a4.67,4.67,0,0,0-2,.19,3.5,3.5,0,0,0-1.52.95,1.75,1.75,0,0,0-.5,1.39,2.09,2.09,0,0,0,1,1.45,5.43,5.43,0,0,0,.82.57,3.44,3.44,0,0,0,.95.38,11.14,11.14,0,0,1-3.29,2.72,8.85,8.85,0,0,1-4.42,1.14,2.46,2.46,0,0,1-2.53-1.55m4.33-9.93a12.74,12.74,0,0,0-4.18,2.79,9.71,9.71,0,0,0-1.75,2.45l0,0a8.84,8.84,0,0,0-.44,1.11,6.67,6.67,0,0,0-.19,3.6,4.88,4.88,0,0,0,1.87,2.78,3.88,3.88,0,0,0,.76.47l0,0a7.14,7.14,0,0,0,3.12.62A16.1,16.1,0,0,0,231,37.75a16.47,16.47,0,0,0,5-3.57,22.28,22.28,0,0,0,5.21-.63,50,50,0,0,0,5-1.46c1.56-.54,2.95-1.09,4.17-1.64s2.19-1,2.91-1.26a1.87,1.87,0,0,0,1-.76h0a.78.78,0,0,0,0-.77.77.77,0,0,0-.33-.31h0a1.64,1.64,0,0,0-.44-.13,3.16,3.16,0,0,0-1.61.35c-.67.3-1.58.69-2.72,1.17s-2.38,1-3.73,1.42-2.73.88-4.14,1.24a16,16,0,0,1-3.82.53,6.17,6.17,0,0,0,.69-2.78,3.8,3.8,0,0,0-.82-2.43A5.8,5.8,0,0,0,234.78,25a11.32,11.32,0,0,0-4.17-.66,15.42,15.42,0,0,0-6.1,1.1"/><path class="cls-1" d="M258.67,24.63a32.15,32.15,0,0,0-3.54,1.05,28.68,28.68,0,0,0-2.91,1.23c-.84.42-1.45.74-1.83.95l-.19.12-.06,0a1.53,1.53,0,0,0-.51.61,1.05,1.05,0,0,0-.06.79.82.82,0,0,0,.5.5,1.25,1.25,0,0,0,1-.16c.71-.38,1.46-.73,2.24-1.07s1.54-.63,2.27-.89,1.42-.45,2-.6a7,7,0,0,1,1.48-.22,1.83,1.83,0,0,1,1.74.73,2.45,2.45,0,0,1,.13,1.86A8.13,8.13,0,0,1,259.87,32a14.24,14.24,0,0,1-2,2.4,10.44,10.44,0,0,1-2.59,1.86,6.1,6.1,0,0,1-2.81.73c-.47,0-.76-.14-.89-.41a2.26,2.26,0,0,1-.19-1q0-.57,0-1.17a2.39,2.39,0,0,0-.28-1,2,2,0,0,0-1.55-1,3,3,0,0,0-1.77.35,2.56,2.56,0,0,0-1.14,1.27,1.79,1.79,0,0,0,.28,1.76l0,.05A11.24,11.24,0,0,0,248,37a7.16,7.16,0,0,0,1.55,1.2,8.85,8.85,0,0,0,2.15.89,10.14,10.14,0,0,0,2.75.35h.12a28.12,28.12,0,0,0,5.82-.67c2.06-.44,4.13-1,6.19-1.64s4.09-1.38,6.07-2.18,3.76-1.57,5.34-2.31,2.91-1.39,4-2,1.78-1,2.12-1.17l.31-.19.08-.06a2.15,2.15,0,0,0,.62-.63.83.83,0,0,0,.13-.73.75.75,0,0,0-.57-.38,1.65,1.65,0,0,0-1,.16c-.3.12-1.1.53-2.4,1.2s-2.92,1.43-4.84,2.27-4,1.72-6.32,2.63A58.62,58.62,0,0,1,263.16,36a13.44,13.44,0,0,0,3.06-3.76,8.78,8.78,0,0,0,1.17-3.85,3.93,3.93,0,0,0-1.1-3,5.19,5.19,0,0,0-3.83-1.2,17,17,0,0,0-3.79.44"/><polygon class="cls-1" points="260.13 46.05 258.13 52.25 258.11 52.25 256.08 46.05 254.38 46.05 257.1 53.95 259.05 53.95 261.71 46.05 260.13 46.05"/><rect class="cls-1" x="263.73" y="46.05" width="1.59" height="7.9"/><g class="cls-2"><rect class="cls-1" x="263.75" y="45.99" width="1.54" height="7.9"/></g><path class="cls-1" d="M270.61,52.7h-.88V54h.58a6,6,0,0,0,2.91-.62V50.05a2.59,2.59,0,0,1-2.61,2.65m-.88-6.65v1.24h.88a2.59,2.59,0,0,1,2.61,2.65V46.67a5.91,5.91,0,0,0-2.91-.62Z"/><path class="cls-1" d="M269.73,47.29h.88a2.71,2.71,0,0,1,0,5.41h-.88Zm-1.58-1.24V54h2.16c2.42,0,4.56-.82,4.56-4s-2.14-4-4.56-4Z"/><polygon class="cls-1" points="279.71 46.05 279.42 46.8 279.42 50.89 280.56 47.63 280.58 47.63 281.73 50.89 279.42 50.89 279.42 52.14 281.73 52.14 281.73 46.62 281.5 46.05 279.71 46.05"/><path class="cls-1" d="M280.56,47.63h0l1.15,3.26h-2.31Zm-.85-1.58L276.63,54h1.64l.69-1.81h3.21l.68,1.81h1.75l-3.1-7.9Z"/><path class="cls-1" d="M36.55,28.59A11.87,11.87,0,1,0,48.42,40.45,11.86,11.86,0,0,0,36.55,28.59Zm0,18.12a6.26,6.26,0,1,1,6.26-6.26A6.26,6.26,0,0,1,36.55,46.71Z"/><path class="cls-1" d="M53.19,31.4a9.06,9.06,0,1,0,9.06,9.05A9.06,9.06,0,0,0,53.19,31.4Zm0,13.83A4.78,4.78,0,1,1,58,40.45,4.78,4.78,0,0,1,53.19,45.23Z"/><path class="cls-1" d="M26.37,18.17a9.06,9.06,0,1,0,9.06,9.06A9,9,0,0,0,26.37,18.17Zm0,13.83a4.78,4.78,0,1,1,4.78-4.77A4.78,4.78,0,0,1,26.37,32Z"/><path class="cls-1" d="M12.61,10.26a6.1,6.1,0,1,0,6.1,6.09A6.1,6.1,0,0,0,12.61,10.26Zm0,9.31a3.22,3.22,0,1,1,3.21-3.22A3.22,3.22,0,0,1,12.61,19.57Z"/><path class="cls-1" d="M9.4,32.49a9.32,9.32,0,1,0,9.31,9.31A9.31,9.31,0,0,0,9.4,32.49Zm0,14.22a4.91,4.91,0,1,1,4.9-4.91A4.91,4.91,0,0,1,9.4,46.71Z"/><path class="cls-1" d="M44.38,18.17a4.78,4.78,0,1,0,4.77,4.77A4.77,4.77,0,0,0,44.38,18.17Zm0,7.29a2.52,2.52,0,1,1,2.51-2.52A2.52,2.52,0,0,1,44.38,25.46Z"/><path class="cls-1" d="M68.06,22.94a4.78,4.78,0,1,0,4.78,4.78A4.78,4.78,0,0,0,68.06,22.94Zm0,7.29a2.52,2.52,0,1,1,2.52-2.51A2.51,2.51,0,0,1,68.06,30.23Z"/><circle class="cls-1" cx="2.24" cy="24.42" r="2.24"/><circle class="cls-1" cx="22.29" cy="55.84" r="1.68"/><circle class="cls-1" cx="55.31" cy="22.45" r="1.97"/></g></g></svg>