<svg xmlns="http://www.w3.org/2000/svg" viewBox="0 0 336.52 71.76"><defs><style>.cls-1,.cls-2{fill:#fff;}.cls-1{fill-rule:evenodd;}</style></defs><g id="Layer_2" data-name="Layer 2"><g id="Layer_2-2" data-name="Layer 2"><path class="cls-1" d="M159.65,18.45c-9.27,0-16.66,7.78-16.66,17.6a16.9,16.9,0,1,0,33.79,0c0-10.09-7.31-17.6-17.13-17.6m.28-6.36A23.8,23.8,0,1,1,136.1,36a23.62,23.62,0,0,1,23.83-23.9"/><path class="cls-1" d="M16,17.79c-4.29,0-8,2.95-7.48,7.39.22,1.89,1.17,3.07,3,4.32a16.19,16.19,0,0,0,2.9,1.24c1.34.48,3,1,4.63,1.61,3.35,1.18,6.78,2.53,8.24,3.9a12,12,0,0,1,4,8.94c0,8.83-7.1,14.73-15.47,14.73S.21,54.09,0,45.53H6.59C7.44,51.39,11.12,54,15.76,54c4.3,0,8.73-2.71,8.73-7.77a6.69,6.69,0,0,0-3.77-6.12A19,19,0,0,0,18,39c-1.11-.39-2.38-.79-3.68-1.22a39.6,39.6,0,0,1-7-2.8,10.94,10.94,0,0,1-5.49-9.52c0-7.86,6-13.6,14.5-13.6,6.68,0,13.55,5.19,14,12.7H23.57A7.46,7.46,0,0,0,16,17.79"/><path class="cls-1" d="M199.65,12.51h22.08v6.26h-19.8V34h19.8v6.26h-19.8v19h-6.82V17.06a4.54,4.54,0,0,1,4.55-4.55"/><path class="cls-1" d="M95.42,23.41l0,35.85H88.55l0-42.43a4.75,4.75,0,0,1,4.75-4.74,4.48,4.48,0,0,1,4,2.25c6.77,11,19.24,31.73,20.59,34l0-35.84h6.84l0,42.42A4.74,4.74,0,0,1,120,59.67a4.48,4.48,0,0,1-4-2.24c-6.77-11-19.24-31.75-20.59-34"/><path class="cls-1" d="M57.84,21.1,51,40H64.75L57.84,21.1m-9.13,25L43.87,59.26H36.75L53.53,15a4.64,4.64,0,0,1,8.63,0L78.93,59.26H71.81L67,46.08Z"/><path class="cls-2" d="M334.86,25C323.29,8,310.33,23,297.32,21.12S284,1.58,299.85.09c.39,0,.77-.07,1.16-.09a35.89,35.89,0,0,1,33.85,25"/><path class="cls-1" d="M335.17,26A35.89,35.89,0,0,1,277.75,63.5a22.31,22.31,0,0,0,7.82,1.4c32.5.17,18.62-43.05,49.6-38.86"/><path class="cls-1" d="M287.53,60.54c-4.49,2.75-11.63,1.92-16.59-4.86a31.31,31.31,0,0,1-2.78-4.56,35.72,35.72,0,0,1-3.4-15.26,37.7,37.7,0,0,1,.25-4.28c7.83,10.55,16.84,10.22,22.57,13.66a9,9,0,0,1,4.24,7.63,9.07,9.07,0,0,1-4.29,7.67"/><rect class="cls-2" x="234.82" y="12.51" width="6.46" height="46.75"/></g></g></svg>