<svg xmlns="http://www.w3.org/2000/svg" viewBox="0 0 211.98 83.51"><defs><style>.cls-1{fill:#828282;}</style></defs><g id="Layer_2" data-name="Layer 2"><g id="Layer_4" data-name="Layer 4"><path class="cls-1" d="M22,18.86s9.69-1,13.58,5.67A46.68,46.68,0,0,1,42.47,39.3s12.4-3.17,17.41-9.5,1.53-14.66-4.41-16.17S41.75,14.5,42.11,26.9c0,0-7.55-14.18-20.08-8"/><path class="cls-1" d="M67,6.36A6.41,6.41,0,1,1,60.63,0,6.39,6.39,0,0,1,67,6.36"/><path class="cls-1" d="M64.41,22.06s1.25,9.66-5.3,13.73a46.54,46.54,0,0,1-14.58,7.26S48,55.36,54.5,60.19s14.69,1.13,16-4.85-1.25-13.69-13.63-13c0,0,14-7.94,7.49-20.29"/><path class="cls-1" d="M78.12,66.71a6.41,6.41,0,1,1,6.19-6.58,6.39,6.39,0,0,1-6.19,6.58"/><path class="cls-1" d="M62.28,64.65s-9.69,1-13.58-5.67a46.55,46.55,0,0,1-6.86-14.77s-12.4,3.17-17.41,9.5S22.9,68.37,28.84,69.89,42.57,69,42.2,56.61c0,0,7.55,14.18,20.08,8"/><path class="cls-1" d="M17.28,77.15a6.4,6.4,0,1,1,6.4,6.36,6.37,6.37,0,0,1-6.4-6.36"/><path class="cls-1" d="M19.91,61.45s-1.26-9.66,5.29-13.73a46.54,46.54,0,0,1,14.58-7.26s-3.5-12.31-10-17.14-14.69-1.13-16,4.85S15,41.86,27.4,41.16c0,0-14,7.94-7.49,20.29"/><path class="cls-1" d="M6.19,16.81A6.4,6.4,0,1,1,0,23.38a6.38,6.38,0,0,1,6.19-6.57"/><path class="cls-1" d="M117.28,19.93a10.86,10.86,0,0,0-3.7-3.37,9.75,9.75,0,0,0-4.68-1.11,9.39,9.39,0,0,0-7,3.06,10.12,10.12,0,0,0-2.93,7.23,10.58,10.58,0,0,0,2.9,7.53,9.35,9.35,0,0,0,7.06,3.07,9.93,9.93,0,0,0,4.61-1.06,10.37,10.37,0,0,0,3.6-3.17H120A12.23,12.23,0,0,1,115.45,37,12.81,12.81,0,0,1,100,35a12.69,12.69,0,0,1-3.65-9.25,12.45,12.45,0,0,1,3.87-9.09A12.15,12.15,0,0,1,104.16,14a12.32,12.32,0,0,1,4.77-.91,12.47,12.47,0,0,1,6.61,1.78,12.62,12.62,0,0,1,4.66,5.1Z"/><path class="cls-1" d="M122.31,28.9a9.72,9.72,0,0,1,2.82-7A8.93,8.93,0,0,1,131.78,19a9.77,9.77,0,0,1,9.76,9.69,9.94,9.94,0,0,1-2.8,7.11A9,9,0,0,1,132,38.73a9.16,9.16,0,0,1-6.85-2.89A9.62,9.62,0,0,1,122.31,28.9Zm2.51,0a7.62,7.62,0,0,0,2,5.39A6.71,6.71,0,0,0,132,36.44a6.57,6.57,0,0,0,5-2.18,7.65,7.65,0,0,0,2-5.42A7.46,7.46,0,0,0,137,23.41a6.93,6.93,0,0,0-5.23-2.13,6.46,6.46,0,0,0-4.88,2.19A7.56,7.56,0,0,0,124.82,28.87Z"/><path class="cls-1" d="M144.38,38.2V13.54h2.39V38.2Z"/><path class="cls-1" d="M149.62,28.9a9.71,9.71,0,0,1,2.81-7A8.94,8.94,0,0,1,159.09,19a9.77,9.77,0,0,1,9.75,9.69,10,10,0,0,1-2.79,7.11,9,9,0,0,1-6.78,2.95,9.16,9.16,0,0,1-6.85-2.89A9.61,9.61,0,0,1,149.62,28.9Zm2.5,0a7.58,7.58,0,0,0,2,5.39,6.71,6.71,0,0,0,5.1,2.18,6.57,6.57,0,0,0,5-2.18,7.66,7.66,0,0,0,2-5.42,7.51,7.51,0,0,0-2.05-5.43,7,7,0,0,0-5.24-2.13,6.48,6.48,0,0,0-4.88,2.19A7.6,7.6,0,0,0,152.12,28.87Z"/><path class="cls-1" d="M174,38.2h-2.42V19.57h2.25v2.15a6.17,6.17,0,0,1,1.92-1.81,5.21,5.21,0,0,1,1.14-.45,5,5,0,0,1,1.3-.16v2.59A4.66,4.66,0,0,0,175,23.23,5.71,5.71,0,0,0,174,27Z"/><path class="cls-1" d="M198.6,29.63H181.78a6.34,6.34,0,0,0,.6,2.76,7.15,7.15,0,0,0,6.55,4,6.83,6.83,0,0,0,3.77-1.08,7.15,7.15,0,0,0,2.6-3H198a10.66,10.66,0,0,1-3.61,4.75,9.08,9.08,0,0,1-5.4,1.67,9.2,9.2,0,0,1-6.87-2.91,9.61,9.61,0,0,1-2.82-6.95,9.6,9.6,0,0,1,2.74-7,9.46,9.46,0,0,1,7-2.79,8.89,8.89,0,0,1,6.84,2.9,10.67,10.67,0,0,1,2.66,7.5Zm-2.64-2a8.29,8.29,0,0,0-2.49-4.7,6.9,6.9,0,0,0-4.73-1.6,7.23,7.23,0,0,0-2.49.42,6.42,6.42,0,0,0-2.1,1.29,7.28,7.28,0,0,0-2.3,4.59Z"/><path class="cls-1" d="M200.16,32.34h2.46v.07a4.19,4.19,0,0,0,1,2.88,3.17,3.17,0,0,0,2.47,1.13,3.26,3.26,0,0,0,2.34-.88,2.9,2.9,0,0,0,.93-2.21,3.08,3.08,0,0,0-.73-2.15A6.78,6.78,0,0,0,206,29.66a9.54,9.54,0,0,1-4-2.25,4.72,4.72,0,0,1-.95-3.08,5,5,0,0,1,1.57-3.71,5.3,5.3,0,0,1,3.85-1.52,5.25,5.25,0,0,1,3.79,1.35,4.76,4.76,0,0,1,1.11,1.64,5.34,5.34,0,0,1,.4,2.14h-2.56a3,3,0,0,0-.21-1.16,2.41,2.41,0,0,0-.61-.87,2.57,2.57,0,0,0-.9-.56,3.21,3.21,0,0,0-1.18-.19,2.61,2.61,0,0,0-1.94.79,2.65,2.65,0,0,0-.78,2,2.55,2.55,0,0,0,1.34,2.41,9.09,9.09,0,0,0,2,.82c.87.26,1.44.46,1.73.58a5.53,5.53,0,0,1,2.55,2,5.59,5.59,0,0,1,.83,3.15,5.26,5.26,0,0,1-1.67,4,5.94,5.94,0,0,1-4.25,1.59A5.49,5.49,0,0,1,201.84,37a6.49,6.49,0,0,1-1.25-2A7.52,7.52,0,0,1,200.16,32.34Z"/><path class="cls-1" d="M112.83,53.92V45h2.38V69.52h-2.38v-2.8a8.45,8.45,0,0,1-3.1,2.4,9.38,9.38,0,0,1-10.67-2,9.55,9.55,0,0,1-2.76-6.92A9.44,9.44,0,0,1,99,53.37a9.11,9.11,0,0,1,6.79-2.78,9.33,9.33,0,0,1,4,.84A8.15,8.15,0,0,1,112.83,53.92Zm0,6.51A7.64,7.64,0,0,0,110.79,55a6.58,6.58,0,0,0-4.93-2.23,6.81,6.81,0,0,0-5,2.14,7.16,7.16,0,0,0-2.08,5.2,7.6,7.6,0,0,0,2.09,5.45,6.75,6.75,0,0,0,5.08,2.2,6.51,6.51,0,0,0,4.85-2.2A7.24,7.24,0,0,0,112.88,60.43Z"/><path class="cls-1" d="M137.13,61H120.41a6.46,6.46,0,0,0,.59,2.75,7,7,0,0,0,1.6,2.15,7.26,7.26,0,0,0,8.66.8,7.07,7.07,0,0,0,2.59-3h2.69A10.57,10.57,0,0,1,133,68.38,9.06,9.06,0,0,1,127.58,70a9.17,9.17,0,0,1-6.82-2.89,10.09,10.09,0,0,1-.08-13.89,9.39,9.39,0,0,1,7-2.77,8.82,8.82,0,0,1,6.79,2.88,10.56,10.56,0,0,1,2.65,7.46Zm-2.62-2A8.32,8.32,0,0,0,132,54.32a6.88,6.88,0,0,0-4.7-1.59,7.12,7.12,0,0,0-2.47.42,6.15,6.15,0,0,0-2.09,1.28A7.25,7.25,0,0,0,120.48,59Z"/><path class="cls-1" d="M156.85,69.52h-2.17L147.42,51h2.51l5.93,14.94,6-14.93h2.57Z"/><path class="cls-1" d="M168.45,48.82h-2.37V45h2.37Zm-2.37,20.7V51h2.37V69.52Z"/><path class="cls-1" d="M187.89,53.92V45h2.37V69.52h-2.37v-2.8a8.53,8.53,0,0,1-3.1,2.4,9.4,9.4,0,0,1-10.68-2,9.55,9.55,0,0,1-2.76-6.92,9.44,9.44,0,0,1,2.71-6.86,9.13,9.13,0,0,1,6.8-2.78,9.25,9.25,0,0,1,4,.84A8.26,8.26,0,0,1,187.89,53.92Zm.05,6.51a7.61,7.61,0,0,0-2.1-5.41,6.58,6.58,0,0,0-4.92-2.23,6.78,6.78,0,0,0-5,2.14,7.13,7.13,0,0,0-2.09,5.2,7.6,7.6,0,0,0,2.1,5.45,6.73,6.73,0,0,0,5.07,2.2,6.51,6.51,0,0,0,4.85-2.2A7.21,7.21,0,0,0,187.94,60.43Z"/><path class="cls-1" d="M209.66,66.59a7.55,7.55,0,0,1-3,2.48,9.3,9.3,0,0,1-4.1.92,9.1,9.1,0,0,1-6.78-2.79,10,10,0,0,1,.06-13.81,9.34,9.34,0,0,1,6.92-2.8,8.85,8.85,0,0,1,3.9.86,8.12,8.12,0,0,1,3,2.51V51H212V69.52h-2.32Zm0-6.46a7.21,7.21,0,0,0-2.1-5.13,6.54,6.54,0,0,0-4.85-2.21,6.78,6.78,0,0,0-5.08,2.2,7.56,7.56,0,0,0-2.1,5.44,7.17,7.17,0,0,0,2.08,5.21,6.74,6.74,0,0,0,5,2.14,6.54,6.54,0,0,0,4.92-2.24A7.64,7.64,0,0,0,209.66,60.13Z"/></g></g></svg>