<svg xmlns="http://www.w3.org/2000/svg" viewBox="0 0 247.04 82.28"><defs><style>.cls-1{fill:#828282;}</style></defs><g id="Layer_2" data-name="Layer 2"><g id="Layer_4" data-name="Layer 4"><path class="cls-1" d="M11,2.77,8.86,12.6c3-.24,5.15-4.09,5.15-7.24,0-2.18-1.06-4-3.65-4C5.59,1.35,2.74,4,2.74,8.51a4.13,4.13,0,0,0,.41,2c-2,0-3.15-.74-3.15-2.86C0,3.74,5.42,0,10.33,0s7,2.77,7,5.8a8.23,8.23,0,0,1-8.51,7.89H8.62L6.83,22.08H2.59l4-18.72Z"/><path class="cls-1" d="M22.93,7.36l-.38,1.82a5.72,5.72,0,0,1,3.56-1.82,2.06,2.06,0,0,1,2,2.21A2.06,2.06,0,0,1,26,11.72c-1.65,0-.83-2-1.71-2a3,3,0,0,0-2.15,1.12L19.81,22.08H15.57L18.69,7.36Z"/><path class="cls-1" d="M39.18,11.8a.65.65,0,0,0,.32.06A9.38,9.38,0,0,0,44,10.1l.27.79a9.26,9.26,0,0,1-5.21,2.44c-.47,5.45-3.42,8.86-7,8.86-2.74,0-4.71-1.29-4.71-4.65s2-10.45,8.07-10.45c2.53,0,3.77,1.62,3.77,4.71m-2.54,1.62c-.61-.14-.79-.65-.79-1.23a1.6,1.6,0,0,1,.91-1.59c-.06-1.24-.35-1.71-1.12-1.71-2.09,0-3.91,5.39-3.91,8.27,0,1.94.38,2.38,1.5,2.38,1.44,0,2.94-2.64,3.41-6.12"/><path class="cls-1" d="M54.8,7.36,51.89,21c1.8-.65,2.88-1.65,3.71-4.21h1.24c-1.15,3.88-3.39,5-5.21,5.5l-.45,2.12c-.88,4.21-3.35,5-5.29,5s-3.3-.94-3.3-2.85c0-2.47,2.59-3.71,4.8-4.39l.35-1.56a4.69,4.69,0,0,1-3.53,1.62c-2,0-3.92-1.23-3.92-4.74,0-4,2.45-10.3,7.57-10.3,1.68,0,2.38.65,2.38,1.5v.18l.33-1.53ZM45.21,27.14c.62,0,1.32-.88,1.71-2.62l.17-.85c-1.5.55-2.88,1.32-2.88,2.5a1,1,0,0,0,1,1m-.56-10c0,2.27.94,2.3,1.47,2.3a2.88,2.88,0,0,0,2.36-2.3l1.5-7A1.16,1.16,0,0,0,48.77,9c-2.5,0-4.12,5.29-4.12,8.06"/><path class="cls-1" d="M61.84,7.36l-.38,1.82A5.72,5.72,0,0,1,65,7.36a2.06,2.06,0,0,1,2,2.21,2.06,2.06,0,0,1-2.12,2.15c-1.65,0-.83-2-1.71-2a3,3,0,0,0-2.15,1.12L58.72,22.08H54.48L57.6,7.36Z"/><path class="cls-1" d="M80.79,7.36l-2.12,10a4.45,4.45,0,0,0-.11.94c0,.82.38,1.26,1.2,1.26,1.15,0,1.95-1.29,2.39-2.76h1.23c-1.67,4.8-4.32,5.44-5.91,5.44a2.71,2.71,0,0,1-2.89-2.71,5.3,5.3,0,0,1-4.38,2.71c-2,0-3.92-1.23-3.92-4.74,0-4,2.44-10.3,7.57-10.3,1.67,0,2.38.65,2.38,1.5v.21l.32-1.56ZM70.64,17.1c0,2.27.94,2.3,1.47,2.3a3,3,0,0,0,2.44-2.59L76,10.16A1.14,1.14,0,0,0,74.76,9c-2.5,0-4.12,5.29-4.12,8.06"/><path class="cls-1" d="M96.83,9.92c-1.06,0-1.85,1.24-2.29,2.71l-2,9.45H88.3l2.15-10.16a2.87,2.87,0,0,0,.08-.73c0-.65-.23-1.3-.88-1.3-1.15,0-1.94,1.27-2.38,2.74l-2,9.45H81L84.15,7.36h4.24l-.33,1.53a4.54,4.54,0,0,1,3.59-1.68,2.78,2.78,0,0,1,3,2.53,4.67,4.67,0,0,1,4.1-2.5A3,3,0,0,1,102,10.57c0,2.38-1.41,5.94-1.41,7.59,0,.74.3,1.24,1.18,1.24,1.29,0,1.82-1.06,2.47-2.59h1.24c-1.65,4.82-3.92,5.44-5.48,5.44a3.12,3.12,0,0,1-3.47-3.32c0-2,1.32-5.63,1.32-7.51,0-1-.35-1.5-1.06-1.5"/><path class="cls-1" d="M118.41,7.36l-2.12,10a4,4,0,0,0-.12.94c0,.82.38,1.09,1.21,1.09a1.51,1.51,0,0,0,.65-.12c-.8,2.06-1.36,3-3,3a2.82,2.82,0,0,1-2.88-2.73,5.33,5.33,0,0,1-4.39,2.73c-2,0-3.91-1.23-3.91-4.74,0-4,2.44-10.3,7.56-10.3,1.68,0,2.39.65,2.39,1.5v.21l.32-1.56ZM108.25,17.1c0,2.27.94,2.3,1.47,2.3a3,3,0,0,0,2.45-2.59l1.41-6.65A1.14,1.14,0,0,0,112.37,9c-2.5,0-4.12,5.29-4.12,8.06"/><path class="cls-1" d="M42.18,33.49H14.56L.76,57.88l13.8,24.4H42.18L56,57.88ZM29,66.19H24.83V47.43c-3,.94-4.31,3.08-4.31,6.1a4,4,0,0,0,.38,1.87C19,55.4,18,54.71,18,52.74c0-3.66,5.05-7.15,9.64-7.15.38,0,.74,0,1.1.06L29,62.54l5.77-16.81h1.92Z"/><path class="cls-1" d="M90.13,33.49H62.51L48.71,57.88l13.8,24.4H90.13l13.81-24.4ZM77.76,63.7a1.75,1.75,0,0,0,.87-.17,2.86,2.86,0,0,1-3,2.83c-1.65,0-2.94-1-2.94-3.3a8.79,8.79,0,0,1,.22-1.78l1.87-8.82h3.95l-2,9.34a4,4,0,0,0-.11.88C76.63,63.45,77,63.7,77.76,63.7ZM77.48,51a2.16,2.16,0,0,1-2.17-2.17A2.18,2.18,0,1,1,77.48,51Z"/><path class="cls-1" d="M147.88,50.77,138.1,33.49H110.48L96.67,57.88l13.81,24.4H138.1L147.88,65l4-7.12Zm-18.47,2.79h-1.64L126,61.8a3.71,3.71,0,0,0-.14,1c0,.58.22,1,1,1a2.25,2.25,0,0,0,.71-.08c-.77,2.36-2,2.69-2.91,2.69-1.92,0-2.74-1.35-2.74-3.1a6.8,6.8,0,0,1,.16-1.46l1.76-8.24h-.91l.22-1.1H124l.83-3.79,4.06-.55s-.41,1.87-.94,4.34h1.65Z"/><path class="cls-1" d="M195.45,51.45l-10.18-18H157.66l-9.78,17.27h0l-4,7.11,4,7.12h0l9.78,17.27h27.61l10.18-18,3.64-6.44ZM177.38,63.7a1.29,1.29,0,0,0,.6-.12c-.74,1.93-1.27,2.78-2.74,2.78a2.65,2.65,0,0,1-2.7-2.55,5,5,0,0,1-4.09,2.55c-1.87,0-3.66-1.15-3.66-4.42,0-3.71,2.29-9.62,7.06-9.62,1.57,0,2.23.61,2.23,1.4v.2l.3-1.46h4l-2,9.34a4,4,0,0,0-.11.88C176.25,63.45,176.61,63.7,177.38,63.7ZM172.71,54c-2.34,0-3.85,4.94-3.85,7.52,0,2.12.88,2.15,1.38,2.15a2.76,2.76,0,0,0,2.27-2.42l1.33-6.21A1.07,1.07,0,0,0,172.71,54Z"/><path class="cls-1" d="M233.22,33.49H205.61l-10.16,18-3.65,6.43,3.65,6.44,10.16,18h27.61L247,57.88ZM221.88,63.64a1.72,1.72,0,0,0,.88-.17,2.93,2.93,0,0,1-3,2.89c-1.64,0-2.93-1-2.93-3.35a8.88,8.88,0,0,1,.22-1.79L220,47.46l4.06-.55-3.15,14.84a3.89,3.89,0,0,0-.12.79A1,1,0,0,0,221.88,63.64Z"/></g></g></svg>