<svg xmlns="http://www.w3.org/2000/svg" xmlns:xlink="http://www.w3.org/1999/xlink" viewBox="0 0 188.73 95.3"><defs><style>.cls-1{fill:none;}.cls-2{clip-path:url(#clip-path);}.cls-3{fill:#828282;}.cls-4{fill:#fff;}</style><clipPath id="clip-path" transform="translate(-65.39 -68.07)"><rect class="cls-1" width="325.63" height="251.63"/></clipPath></defs><g id="Layer_2" data-name="Layer 2"><g id="Layer_2-2" data-name="Layer 2"><g class="cls-2"><g class="cls-2"><path class="cls-3" d="M105.41,76.2a8.13,8.13,0,1,1-8.13-8.13,8.13,8.13,0,0,1,8.13,8.13" transform="translate(-65.39 -68.07)"/></g><g class="cls-2"><path class="cls-3" d="M165.24,152.4a11.39,11.39,0,1,1-.06-11.72h-2.84a9.19,9.19,0,1,0-7,15.06,9,9,0,0,0,7.07-3.34Z" transform="translate(-65.39 -68.07)"/><path class="cls-3" d="M167.58,150.87a7.11,7.11,0,0,1,14.21,0,7.11,7.11,0,1,1-14.21,0m2.18,0a4.92,4.92,0,1,0,9.84,0,4.92,4.92,0,1,0-9.84,0" transform="translate(-65.39 -68.07)"/><path class="cls-3" d="M187.15,145.86a6.08,6.08,0,0,1,4.64-2.09v2.06c-2.43,0-4.64,1.49-4.64,4.3v7.57h-2.09V144h2.09Z" transform="translate(-65.39 -68.07)"/><path class="cls-3" d="M193.5,150.87a7.14,7.14,0,0,1,7.11-7.1,6.71,6.71,0,0,1,5.17,2.46V144h2.09v13.77h-2.09v-2.24a6.67,6.67,0,0,1-5.17,2.52,7.24,7.24,0,0,1-7.11-7.17m12.16,0a5.16,5.16,0,0,0-5.11-5,4.9,4.9,0,0,0-4.86,5,5,5,0,0,0,4.86,5.11,5.25,5.25,0,0,0,5.11-5.11" transform="translate(-65.39 -68.07)"/><polygon class="cls-3" points="156.72 89.63 146.22 89.63 146.22 87.63 153.92 77.91 146.22 77.91 146.22 75.92 156.54 75.92 156.54 77.91 148.84 87.63 156.72 87.63 156.72 89.63"/><path class="cls-3" d="M224.45,150.87a7.11,7.11,0,0,1,14.21,0,7.11,7.11,0,1,1-14.21,0m2.18,0a4.93,4.93,0,1,0,9.85,0,4.93,4.93,0,1,0-9.85,0m2.15-10.15L232,136.2h2.71l-3.61,4.52Z" transform="translate(-65.39 -68.07)"/><path class="cls-3" d="M241.93,144H244v1.65a5.93,5.93,0,0,1,4.49-1.87c3.92,0,5.61,1.74,5.61,6.11v7.82H252v-7.82c0-2.71-1.25-4-3.52-4-2.78-.07-4.49,1.49-4.49,4.58v7.29h-2.09Z" transform="translate(-65.39 -68.07)"/><path class="cls-3" d="M124.56,105.88H126l9.57,20.7h-1.68l-2.61-5.76H119.19l-2.62,5.76H115Zm6.11,13.56-5.41-11.89-5.43,11.89Z" transform="translate(-65.39 -68.07)"/><path class="cls-3" d="M139.91,111.6h1.44v2.67a5.52,5.52,0,0,1,5-3,5.37,5.37,0,0,1,5,3.23,6,6,0,0,1,5.41-3.23c3.55,0,5.75,2.5,5.75,6.25v9.08h-1.44v-8.9c0-3.23-1.67-5.11-4.43-5.11-2.53,0-4.73,1.94-4.73,5.29v8.72h-1.44v-9c0-3.11-1.7-5-4.37-5s-4.79,2.35-4.79,5.37v8.64h-1.44Z" transform="translate(-65.39 -68.07)"/><path class="cls-3" d="M168.16,105.73H170v2h-1.79Zm.17,5.87h1.44v15h-1.44Z" transform="translate(-65.39 -68.07)"/><path class="cls-3" d="M175.44,129l.85-1.17a9.76,9.76,0,0,0,6.05,2.11c3.43,0,5.87-2,5.87-5.81V122a7.45,7.45,0,0,1-6.26,3.46,7.09,7.09,0,0,1-7.19-7v0a7.12,7.12,0,0,1,7.19-7.11,7.45,7.45,0,0,1,6.26,3.35v-3h1.44v12.66a7,7,0,0,1-1.91,5.08,7.58,7.58,0,0,1-5.43,2,11.27,11.27,0,0,1-6.87-2.29m12.86-10.65v-.06c0-3.47-3.09-5.7-6.2-5.7a5.53,5.53,0,0,0-5.78,5.67v.06a5.69,5.69,0,0,0,5.78,5.72c3.11,0,6.2-2.29,6.2-5.69" transform="translate(-65.39 -68.07)"/><path class="cls-3" d="M194.37,119.15v-.06a7.74,7.74,0,0,1,7.72-7.84,7.66,7.66,0,0,1,7.67,7.78v.06a7.74,7.74,0,0,1-7.72,7.84,7.66,7.66,0,0,1-7.67-7.78m13.83,0v-.06A6.28,6.28,0,0,0,202,112.6a6.18,6.18,0,0,0-6.11,6.43v.06a6.28,6.28,0,0,0,6.16,6.49,6.18,6.18,0,0,0,6.11-6.43" transform="translate(-65.39 -68.07)"/><path class="cls-3" d="M213.19,124.7l.85-1.15a8.77,8.77,0,0,0,5.38,2c2,0,3.61-1.12,3.61-2.85v-.06c0-1.76-1.88-2.4-4-3-2.43-.71-5.13-1.44-5.13-4.11v-.06c0-2.41,2-4.14,4.93-4.14a10.15,10.15,0,0,1,5.31,1.64l-.76,1.21a8.59,8.59,0,0,0-4.61-1.5c-2.06,0-3.41,1.12-3.41,2.61v.06c0,1.68,2,2.29,4.17,2.91,2.41.67,4.94,1.55,4.94,4.2v.06c0,2.67-2.29,4.37-5.17,4.37a10.29,10.29,0,0,1-6.14-2.17" transform="translate(-65.39 -68.07)"/><path class="cls-3" d="M114.73,144.41v0a5.11,5.11,0,0,1,5-5.34,4.91,4.91,0,0,1,4.2,2.44v-6.61h1v14.62h-1V147.2a4.93,4.93,0,0,1-4.2,2.52,5.08,5.08,0,0,1-5-5.31m9.23,0v0A4.26,4.26,0,0,0,119.8,140c-2.22,0-4,1.62-4,4.36v0a4.11,4.11,0,0,0,4,4.41,4.27,4.27,0,0,0,4.16-4.39" transform="translate(-65.39 -68.07)"/><path class="cls-3" d="M127.71,144.39v0a5,5,0,0,1,4.84-5.32c2.87,0,4.69,2.32,4.69,5.34a2.55,2.55,0,0,1,0,.4h-8.47a4,4,0,0,0,4,4,4.59,4.59,0,0,0,3.51-1.6l.68.6a5.37,5.37,0,0,1-4.23,1.92,5.07,5.07,0,0,1-5-5.33m8.47-.5c-.14-2.06-1.32-4-3.67-4a4,4,0,0,0-3.76,4Z" transform="translate(-65.39 -68.07)"/></g><path class="cls-3" d="M74.09,102.51l-4.81,2.08-3.89,2.33h0a39.82,39.82,0,0,0,23.74,8h.22c7.42,0,16.1-2.21,25.38-8.82,0,0-37.87,14.24-35.3-3.64Z" transform="translate(-65.39 -68.07)"/><g class="cls-2"><path class="cls-4" d="M65.39,106.92c8.83-3.61,14-4.41,14-4.41a69.74,69.74,0,0,1,2.21-9.37,49.37,49.37,0,0,0-16.25,13.78" transform="translate(-65.39 -68.07)"/></g></g><path class="cls-3" d="M124.94,92S102,82.26,79.8,94.23c0,0-13,34.37,15,69.15C94.49,162.64,70.89,112.5,124.94,92Zm-24,12.63-4,3.54-3.91-3.54A5.13,5.13,0,0,1,91.56,102a3.38,3.38,0,0,1-.1-1.18,3.18,3.18,0,0,1,3-3.11A2.91,2.91,0,0,1,97,99.2a3,3,0,0,1,2.58-1.49,3.16,3.16,0,0,1,3,3.11,3.24,3.24,0,0,1-.09,1.18A5.13,5.13,0,0,1,101,104.59Z" transform="translate(-65.39 -68.07)"/></g></g></svg>